Coordinates
version=1
nRows=17
nColumns=24
inDegrees=yes

Units are S.I. units (second, meters, Newtons, ...)
Angles are in degrees.

endheader
time	pelvis_tilt	pelvis_list	pelvis_rotation	pelvis_tx	pelvis_ty	pelvis_tz	hip_flexion_r	hip_adduction_r	hip_rotation_r	knee_angle_r	ankle_angle_r	subtalar_angle_r	mtp_angle_r	hip_flexion_l	hip_adduction_l	hip_rotation_l	knee_angle_l	ankle_angle_l	subtalar_angle_l	mtp_angle_l	lumbar_extension	lumbar_bending	lumbar_rotation
      1.32550000	     -0.17788231	      3.83447789	     -3.15615001	      0.21261523	      1.06635018	      0.32733796	     15.88596966	     -5.61770794	     -2.08732509	    -67.32296436	     -6.85158588	    -12.48808439	      7.73442549	      7.72116132	      8.87800433	     -3.50050394	     -5.59559390	     -1.89050086	     -9.13857710	     -0.72977949	      5.00757763	     -1.04624973	      0.73874405
      1.32966667	     -0.17367510	      3.82507122	     -3.15642363	      0.21755525	      1.06689874	      0.32731658	     16.51572546	     -5.53852702	     -1.88620896	    -67.33034793	     -6.43952770	    -12.66307115	      7.70738814	      7.31559956	      8.88469278	     -3.38752508	     -5.39413900	     -1.79513916	     -9.07548443	     -0.74377760	      4.94382493	     -1.03935814	      0.68581774
      1.33383333	     -0.18495474	      3.85503014	     -3.12458902	      0.22256376	      1.06740727	      0.32711320	     17.14132326	     -5.52747850	     -1.73784755	    -67.30641293	     -5.54463415	    -12.94981697	      7.64009381	      6.94134617	      8.95674109	     -3.43167526	     -5.23312847	     -1.57024117	     -9.04842717	     -0.78304728	      4.95749823	     -1.10495370	      0.60306545
      1.33800000	     -0.17699674	      3.88881444	     -3.12925590	      0.22751244	      1.06791623	      0.32691878	     17.74833077	     -5.51174127	     -1.54439463	    -67.21377484	     -5.04815055	    -13.07938657	      7.59610876	      6.52324633	      9.03290388	     -3.32963921	     -5.00679350	     -1.45386056	     -8.95490377	     -0.80827583	      4.93589066	     -1.08098744	      0.53240065
      1.34216667	     -0.18316592	      3.88535532	     -3.08984859	      0.23248052	      1.06842980	      0.32683138	     18.33047870	     -5.44059308	     -1.38374068	    -67.04276005	     -4.30294115	    -13.18728048	      7.51924412	      6.13014317	      9.05254170	     -3.32179348	     -4.82200001	     -1.26547953	     -8.89522948	     -0.85667486	      4.91348355	     -1.12722482	      0.44084080
      1.34633333	     -0.20686380	      3.89847538	     -3.06225874	      0.23740300	      1.06887710	      0.32666414	     18.93025991	     -5.39314723	     -1.20270885	    -66.82693330	     -3.64560345	    -13.06855262	      7.35081488	      5.74911349	      9.09912997	     -3.25811770	     -4.61082708	     -1.10813363	     -8.74597438	     -0.96715493	      4.87648680	     -1.13351645	      0.29030049
      1.35050000	     -0.19788741	      3.88371476	     -3.04047881	      0.24242580	      1.06940691	      0.32660564	     19.45742369	     -5.29843430	     -1.01870917	    -66.48617364	     -3.38903665	    -13.15585452	      7.32971855	      5.30586983	      9.10506045	     -3.15469236	     -4.36112284	     -1.04640952	     -8.69679630	     -0.97974634	      4.84718742	     -1.12810738	      0.25922365
      1.35466667	     -0.15383012	      3.92664303	     -3.04689240	      0.24735750	      1.06989810	      0.32638682	     19.96637262	     -5.28363861	     -0.83340398	    -66.17875745	     -2.72518491	    -13.30681759	      7.28495174	      4.82672353	      9.19817094	     -3.05838464	     -4.08600887	     -0.88670767	     -8.65367120	     -1.00972359	      4.85197886	     -1.11424164	      0.19593864
      1.35883333	     -0.14762517	      3.92627222	     -3.01907162	      0.25232265	      1.07036063	      0.32628604	     20.47371421	     -5.20418759	     -0.65965238	    -65.76555488	     -2.18989018	    -13.33671311	      7.24208512	      4.38617530	      9.22508707	     -2.96663378	     -3.82610243	     -0.76517860	     -8.60301017	     -1.04047475	      4.81110600	     -1.11577403	      0.13170462
      1.36300000	     -0.12595008	      3.93212590	     -2.98017411	      0.25728027	      1.07082394	      0.32616993	     20.94701617	     -5.13519629	     -0.49608126	    -65.30368275	     -1.63696725	    -13.31106975	      7.19226149	      3.92527011	      9.26144058	     -2.87618045	     -3.55896073	     -0.64188788	     -8.54872544	     -1.07802905	      4.77192331	     -1.12984734	      0.05641371
      1.36716667	     -0.15602603	      3.91486710	     -2.91074445	      0.26222690	      1.07121208	      0.32613377	     21.44774489	     -5.02980347	     -0.34991094	    -64.74459603	     -1.38121260	    -13.30306438	      7.17252298	      3.52807091	      9.25743418	     -2.81339690	     -3.31759495	     -0.58473833	     -8.51272718	     -1.09284581	      4.69337712	     -1.15721240	      0.01979289
      1.37133333	     -0.11110803	      3.94711278	     -2.86105451	      0.26709798	      1.07163160	      0.32591284	     21.87366086	     -5.00354446	     -0.19362866	    -64.21938334	     -0.51169798	    -12.98181057	      7.03139656	      3.04013047	      9.33523290	     -2.68216247	     -3.03252593	     -0.40689890	     -8.43971356	     -1.20912961	      4.60062613	     -1.16848995	     -0.18437097
      1.37550000	     -0.13192439	      3.94329450	     -2.80884034	      0.27209756	      1.07197449	      0.32588859	     22.33058400	     -4.90725795	     -0.03456692	    -63.55470451	     -0.33094801	    -13.00830987	      7.01226923	      2.61225846	      9.34707695	     -2.61250735	     -2.74684450	     -0.36409814	     -8.40181125	     -1.22332226	      4.58542494	     -1.20756214	     -0.20856669
      1.37966667	     -0.14406380	      3.95573462	     -2.78016386	      0.27709491	      1.07229074	      0.32585720	     22.77033653	     -4.82327157	      0.14613513	    -62.85909232	     -0.05392173	    -13.04581032	      6.99118169	      2.16407887	      9.38215938	     -2.51060665	     -2.43503091	     -0.29935014	     -8.35719431	     -1.23962379	      4.58683489	     -1.22939665	     -0.24543592
      1.38383333	     -0.09349909	      3.98937421	     -2.75391106	      0.28207114	      1.07263898	      0.32569838	     23.13184564	     -4.78213483	      0.30625988	    -62.14855258	      0.46887689	    -13.05594571	      6.94223829	      1.63941050	      9.45884262	     -2.38407606	     -2.09608813	     -0.17308196	     -8.32470953	     -1.28151267	      4.63919321	     -1.22177593	     -0.33459831
      1.38800000	     -0.08885737	      4.00487942	     -2.69866633	      0.28701176	      1.07290985	      0.32562537	     23.51668487	     -4.71184182	      0.45775346	    -61.35801396	      0.81971141	    -13.00860539	      6.89295057	      1.17346726	      9.49901483	     -2.27057802	     -1.77439338	     -0.09276862	     -8.28993340	     -1.32476630	      4.59434678	     -1.25722782	     -0.42260174
      1.39216667	     -0.14223848	      4.02555932	     -2.62012610	      0.29194504	      1.07305906	      0.32560479	     23.94484116	     -4.64134070	      0.59835225	    -60.51340361	      0.99497488	    -13.00927886	      6.87356630	      0.78488423	      9.53382125	     -2.21822973	     -1.49696685	     -0.04953541	     -8.26465083	     -1.34109232	      4.52207997	     -1.31397262	     -0.45823899
